<svg xmlns="http://www.w3.org/2000/svg" viewBox="0 0 64 64">
  <defs>
    <style>
      .cls-1, .cls-4 {
        fill: none;
      }

      .cls-1 {
        stroke: #6f1e51;
        stroke-width: 2px;
      }

      .cls-2 {
        fill: #6f1e51;
      }

      .cls-3 {
        stroke: none;
      }
    </style>
  </defs>
  <g id="icon_lawyers" transform="translate(-649 -708)">
    <g id="Rectangle_20" data-name="Rectangle 20" class="cls-1" transform="translate(649 708)">
      <rect class="cls-3" width="64" height="64"/>
      <rect class="cls-4" x="1" y="1" width="62" height="62"/>
    </g>
    <g id="group" transform="translate(658.006 717)">
      <path id="Path_196" data-name="Path 196" class="cls-2" d="M6.112,34.539c6.488-1.527,12.594-2.862,9.732-8.4C6.685,9.159,13.363,0,22.9,0c9.732,0,16.22,9.35,7.06,26.142-3.053,5.534,3.244,6.87,9.732,8.4,5.725,1.336,6.106,4.007,6.106,8.969V45.8H41.986c0-5.915.191-6.87-3.435-7.633-5.534-1.336-10.5-2.481-12.4-6.679-.763-1.527-1.145-4.007.572-7.251,4.007-7.251,4.961-13.548,2.671-17.174-2.671-4.389-10.3-4.389-12.976,0-2.1,3.626-1.145,9.923,2.671,17.174,1.717,3.244,1.336,5.725.572,7.251-1.908,4.2-7.06,5.343-12.594,6.679-3.435.763-3.244,1.717-3.244,7.633H.006C.006,39.5-.567,36.065,6.112,34.539Z" transform="translate(0)"/>
      <path id="Path_197" data-name="Path 197" class="cls-2" d="M0,26.674H1.908c0-2.671-.191-1.908,2.671-2.862,1.527-.382,2.671-.954,3.244-2.29a2.952,2.952,0,0,0-.191-3.053C6.3,15.988,5.915,13.7,6.679,12.362a2.5,2.5,0,0,1,4.007,0c1.336,2.29-1.145,5.725-1.527,7.06h1.908c.572-1.336,1.717-3.244,1.717-5.534A4.057,4.057,0,0,0,8.587,9.5c-3.626,0-6.106,3.435-2.671,9.732,1.145,2.1-1.145,2.671-3.626,3.244C.191,22.857,0,24,0,25.72Z" transform="translate(0.006 8.628)"/>
      <path id="Path_198" data-name="Path 198" class="cls-2" d="M30.085,25.72c0-1.717-.191-2.862-2.29-3.244-2.481-.572-4.771-1.145-3.626-3.244C27.6,12.935,25.124,9.5,21.5,9.5c-2.481,0-4.2,1.527-4.2,4.389,0,2.481,1.145,4.2,1.717,5.534h1.908c-.382-1.336-2.671-4.771-1.336-7.06a2.5,2.5,0,0,1,4.007,0c.763,1.145.382,3.435-.954,6.106a2.952,2.952,0,0,0-.191,3.053,4.537,4.537,0,0,0,3.244,2.29c2.862.763,2.671,0,2.671,2.862h1.908C30.085,26.674,30.085,25.72,30.085,25.72Z" transform="translate(15.718 8.628)"/>
    </g>
  </g>
</svg>
