<svg xmlns="http://www.w3.org/2000/svg" viewBox="0 0 64 64">
  <defs>
    <style>
      .cls-1, .cls-4 {
        fill: none;
      }

      .cls-1 {
        stroke: #6f1e51;
        stroke-width: 2px;
      }

      .cls-2 {
        fill: #6f1e51;
      }

      .cls-3 {
        stroke: none;
      }
    </style>
  </defs>
  <g id="icon_lawyer" transform="translate(-1046 -708)">
    <g id="Rectangle_18" data-name="Rectangle 18" class="cls-1" transform="translate(1046 708)">
      <rect class="cls-3" width="64" height="64"/>
      <rect class="cls-4" x="1" y="1" width="62" height="62"/>
    </g>
    <path id="lawyer" class="cls-2" d="M45.99,46H42.167c0-5.949.228-6.8-3.375-7.64-5.514-1.273-10.722-2.474-12.619-6.628-.692-1.516-1.152-4.015.594-7.31,3.914-7.393,4.9-13.733,2.689-17.4-2.57-4.272-10.375-4.3-12.968.065C14.275,10.8,15.27,17.11,19.216,24.39c1.783,3.281,1.336,5.788.648,7.312-1.882,4.174-7.044,5.365-12.506,6.624C3.594,39.2,3.833,39.993,3.833,46H.01L0,43.621C0,38.791.381,36,6.091,34.684c6.45-1.489,12.819-2.823,9.756-8.468C6.775,9.486,13.26,0,23,0c9.551,0,16.2,9.135,7.153,26.216-2.973,5.612,3.163,6.946,9.756,8.468C45.619,36,46,38.791,46,43.621L45.99,46ZM20.158,34.5,21.9,38.333h2.231L25.9,34.5H20.158ZM25.9,46l-1.349-5.75h-3.1L20.1,46H25.9Z" transform="translate(1055 717)"/>
  </g>
</svg>
