<svg xmlns="http://www.w3.org/2000/svg" viewBox="0 0 64 64">
  <defs>
    <style>
      .cls-1, .cls-4 {
        fill: none;
      }

      .cls-1 {
        stroke: #6f1e51;
        stroke-width: 2px;
      }

      .cls-2 {
        fill: #6f1e51;
        fill-rule: evenodd;
      }

      .cls-3 {
        stroke: none;
      }
    </style>
  </defs>
  <g id="icon_building" transform="translate(-1443 -708)">
    <g id="Rectangle_19" data-name="Rectangle 19" class="cls-1" transform="translate(1443 708)">
      <rect class="cls-3" width="64" height="64"/>
      <rect class="cls-4" x="1" y="1" width="62" height="62"/>
    </g>
    <path id="building" class="cls-2" d="M46,46H0V42.167H46Zm-1.917-5.75H1.917V38.333H44.083ZM11.5,36.419H3.833V23a1.917,1.917,0,0,1,0-3.833H11.5A1.917,1.917,0,0,1,11.5,23Zm15.333,0H19.167V23a1.917,1.917,0,0,1,0-3.833h7.667a1.917,1.917,0,1,1,0,3.833Zm15.333,0H34.5V23a1.917,1.917,0,1,1,0-3.833h7.667a1.917,1.917,0,1,1,0,3.833ZM23,0,0,17.25H46L23,0Zm0,5.75a3.833,3.833,0,1,1-3.833,3.833A3.835,3.835,0,0,1,23,5.75Z" transform="translate(1452 717)"/>
  </g>
</svg>
