<svg xmlns="http://www.w3.org/2000/svg" viewBox="0 0 2007.294 56.568">
  <defs>
    <style>
      .cls-1 {
        fill: #fff;
      }
    </style>
  </defs>
  <g id="img_designed" transform="translate(53.403 -1286.645)">
    <path id="Path_1" data-name="Path 1" class="cls-1" d="M0,0,36.742,3.257,40,40,3.257,36.742Z" transform="translate(1925.607 1286.645) rotate(45)"/>
    <path id="Path_2" data-name="Path 2" class="cls-1" d="M0,0,36.742,3.257,40,40,3.257,36.742Z" transform="translate(1358.635 1286.645) rotate(45)"/>
    <path id="Path_3" data-name="Path 3" class="cls-1" d="M0,0,36.742,3.257,40,40,3.257,36.742Z" transform="translate(786.042 1286.645) rotate(45)"/>
    <path id="Path_4" data-name="Path 4" class="cls-1" d="M0,0,36.742,3.257,40,40,3.257,36.742Z" transform="translate(1639.31 1286.645) rotate(45)"/>
    <path id="Path_5" data-name="Path 5" class="cls-1" d="M0,0,36.742,3.257,40,40,3.257,36.742Z" transform="translate(1072.339 1286.645) rotate(45)"/>
    <path id="Path_6" data-name="Path 6" class="cls-1" d="M0,0,36.742,3.257,40,40,3.257,36.742Z" transform="translate(499.746 1286.645) rotate(45)"/>
    <path id="Path_40" data-name="Path 40" class="cls-1" d="M0,0,36.742,3.257,40,40,3.257,36.742Z" transform="translate(165.746 1286.645) rotate(45)"/>
    <path id="Path_7" data-name="Path 7" class="cls-1" d="M0,0,36.742,3.257,40,40,3.257,36.742Z" transform="translate(1830.175 1286.645) rotate(45)"/>
    <path id="Path_8" data-name="Path 8" class="cls-1" d="M0,0,36.742,3.257,40,40,3.257,36.742Z" transform="translate(1263.203 1286.645) rotate(45)"/>
    <path id="Path_9" data-name="Path 9" class="cls-1" d="M0,0,36.742,3.257,40,40,3.257,36.742Z" transform="translate(690.61 1286.645) rotate(45)"/>
    <path id="Path_10" data-name="Path 10" class="cls-1" d="M0,0,36.742,3.257,40,40,3.257,36.742Z" transform="translate(1543.878 1286.645) rotate(45)"/>
    <path id="Path_11" data-name="Path 11" class="cls-1" d="M0,0,36.742,3.257,40,40,3.257,36.742Z" transform="translate(976.907 1286.645) rotate(45)"/>
    <path id="Path_12" data-name="Path 12" class="cls-1" d="M0,0,36.742,3.257,40,40,3.257,36.742Z" transform="translate(404.313 1286.645) rotate(45)"/>
    <path id="Path_38" data-name="Path 38" class="cls-1" d="M0,0,36.742,3.257,40,40,3.257,36.742Z" transform="translate(70.313 1286.645) rotate(45)"/>
    <path id="Path_13" data-name="Path 13" class="cls-1" d="M0,0,36.742,3.257,40,40,3.257,36.742Z" transform="translate(1734.742 1286.645) rotate(45)"/>
    <path id="Path_14" data-name="Path 14" class="cls-1" d="M0,0,36.742,3.257,40,40,3.257,36.742Z" transform="translate(1167.771 1286.645) rotate(45)"/>
    <path id="Path_15" data-name="Path 15" class="cls-1" d="M0,0,36.742,3.257,40,40,3.257,36.742Z" transform="translate(595.178 1286.645) rotate(45)"/>
    <path id="Path_42" data-name="Path 42" class="cls-1" d="M0,0,36.742,3.257,40,40,3.257,36.742Z" transform="translate(261.178 1286.645) rotate(45)"/>
    <path id="Path_16" data-name="Path 16" class="cls-1" d="M0,0,36.742,3.257,40,40,3.257,36.742Z" transform="translate(1448.446 1286.645) rotate(45)"/>
    <path id="Path_17" data-name="Path 17" class="cls-1" d="M0,0,36.742,3.257,40,40,3.257,36.742Z" transform="translate(881.474 1286.645) rotate(45)"/>
    <path id="Path_18" data-name="Path 18" class="cls-1" d="M0,0,36.742,3.257,40,40,3.257,36.742Z" transform="translate(308.881 1286.645) rotate(45)"/>
    <path id="Path_19" data-name="Path 19" class="cls-1" d="M0,0,36.742,3.257,40,40,3.257,36.742Z" transform="translate(1877.891 1286.645) rotate(45)"/>
    <path id="Path_20" data-name="Path 20" class="cls-1" d="M0,0,36.742,3.257,40,40,3.257,36.742Z" transform="translate(1310.919 1286.645) rotate(45)"/>
    <path id="Path_21" data-name="Path 21" class="cls-1" d="M0,0,36.742,3.257,40,40,3.257,36.742Z" transform="translate(738.326 1286.645) rotate(45)"/>
    <path id="Path_22" data-name="Path 22" class="cls-1" d="M0,0,36.742,3.257,40,40,3.257,36.742Z" transform="translate(1591.594 1286.645) rotate(45)"/>
    <path id="Path_23" data-name="Path 23" class="cls-1" d="M0,0,36.742,3.257,40,40,3.257,36.742Z" transform="translate(1024.623 1286.645) rotate(45)"/>
    <path id="Path_24" data-name="Path 24" class="cls-1" d="M0,0,36.742,3.257,40,40,3.257,36.742Z" transform="translate(452.03 1286.645) rotate(45)"/>
    <path id="Path_39" data-name="Path 39" class="cls-1" d="M0,0,36.742,3.257,40,40,3.257,36.742Z" transform="translate(118.03 1286.645) rotate(45)"/>
    <path id="Path_25" data-name="Path 25" class="cls-1" d="M0,0,36.742,3.257,40,40,3.257,36.742Z" transform="translate(1782.459 1286.645) rotate(45)"/>
    <path id="Path_26" data-name="Path 26" class="cls-1" d="M0,0,36.742,3.257,40,40,3.257,36.742Z" transform="translate(1215.487 1286.645) rotate(45)"/>
    <path id="Path_27" data-name="Path 27" class="cls-1" d="M0,0,36.742,3.257,40,40,3.257,36.742Z" transform="translate(642.894 1286.645) rotate(45)"/>
    <path id="Path_28" data-name="Path 28" class="cls-1" d="M0,0,36.742,3.257,40,40,3.257,36.742Z" transform="translate(1496.162 1286.645) rotate(45)"/>
    <path id="Path_29" data-name="Path 29" class="cls-1" d="M0,0,36.742,3.257,40,40,3.257,36.742Z" transform="translate(929.191 1286.645) rotate(45)"/>
    <path id="Path_30" data-name="Path 30" class="cls-1" d="M0,0,36.742,3.257,40,40,3.257,36.742Z" transform="translate(356.597 1286.645) rotate(45)"/>
    <path id="Path_37" data-name="Path 37" class="cls-1" d="M0,0,36.742,3.257,40,40,3.257,36.742Z" transform="translate(22.597 1286.645) rotate(45)"/>
    <path id="Path_31" data-name="Path 31" class="cls-1" d="M0,0,36.742,3.257,40,40,3.257,36.742Z" transform="translate(1687.026 1286.645) rotate(45)"/>
    <path id="Path_32" data-name="Path 32" class="cls-1" d="M0,0,36.742,3.257,40,40,3.257,36.742Z" transform="translate(1120.055 1286.645) rotate(45)"/>
    <path id="Path_33" data-name="Path 33" class="cls-1" d="M0,0,36.742,3.257,40,40,3.257,36.742Z" transform="translate(547.462 1286.645) rotate(45)"/>
    <path id="Path_41" data-name="Path 41" class="cls-1" d="M0,0,36.742,3.257,40,40,3.257,36.742Z" transform="translate(213.462 1286.645) rotate(45)"/>
    <path id="Path_34" data-name="Path 34" class="cls-1" d="M0,0,36.742,3.257,40,40,3.257,36.742Z" transform="translate(1400.73 1286.645) rotate(45)"/>
    <path id="Path_35" data-name="Path 35" class="cls-1" d="M0,0,36.742,3.257,40,40,3.257,36.742Z" transform="translate(833.758 1286.645) rotate(45)"/>
    <path id="Path_36" data-name="Path 36" class="cls-1" d="M0,0,36.742,3.257,40,40,3.257,36.742Z" transform="translate(-25.119 1286.645) rotate(45)"/>
  </g>
</svg>
