<svg xmlns="http://www.w3.org/2000/svg" viewBox="0 0 180.974 45">
  <defs>
    <style>
      .cls-1 {
        fill: #6f1e51;
      }

      .cls-2 {
        fill: #2f3542;
      }

      .cls-3 {
        fill: #747d8c;
      }
    </style>
  </defs>
  <g id="logo_mobile_fixed" transform="translate(0 0.1)">
    <g id="Group_23" data-name="Group 23" transform="translate(152.686 -0.046)">
      <path id="Path_117" data-name="Path 117" class="cls-1" d="M297.336,25.367h-4.868c-2.326,0-2.758.325-3.407,2.488,0,.054-.054.108-.054.162-1.082,3.516-1.082,3.516,2.488,4.381,0,.325.054.7.054,1.082a7.387,7.387,0,0,1-.108,1.028H282.3c.433-1.406.811-2.7,1.19-3.948,3.137-9.627,6.328-19.309,9.465-28.936A1.956,1.956,0,0,1,295.173,0c3.191.054,3.245,0,4.273,3.083,3.462,10.006,6.923,20.066,10.385,30.072.162.433.216.811.379,1.406h-11.2V32.506c.054-.054.162-.162.216-.162,2.975-.7,3.029-.757,2.055-3.732-2.055-6.6-4.111-13.2-6.166-19.85a3.713,3.713,0,0,0-.324-.7c-1.136,3.948-2.272,7.788-3.407,11.629-.379,1.244.054,1.947,1.46,1.839h.487C296.633,21.581,296.633,21.581,297.336,25.367Z" transform="translate(-282.3 0)"/>
      <path id="Path_118" data-name="Path 118" class="cls-1" d="M310.771,69.6c-3.516,4.651-7.9,7.085-13.468,7.248-6,.162-10.763-2.272-14.6-7.248Z" transform="translate(-282.484 -31.956)"/>
    </g>
    <g id="Group_24" data-name="Group 24" transform="translate(5.246 14.017)">
      <path id="Path_119" data-name="Path 119" class="cls-2" d="M13.432,34.613H9.7V26.5h3.732Z" transform="translate(-9.7 -26.23)"/>
      <path id="Path_120" data-name="Path 120" class="cls-2" d="M28.672,40.625H21.1V38.083h3.84V30.294c0-.811-.649-1.244-1.947-1.244h-.649c-.27,0-.595.054-.974.054V26.562a20.207,20.207,0,0,1,2.813-.162,5.006,5.006,0,0,1,3.3.919,4.279,4.279,0,0,1,1.19,3.407Z" transform="translate(-14.934 -26.184)"/>
      <path id="Path_121" data-name="Path 121" class="cls-2" d="M44.732,40.671H41V26.5h3.732Z" transform="translate(-24.071 -26.23)"/>
      <path id="Path_122" data-name="Path 122" class="cls-2" d="M66.687,26.362,66.2,35.016c-.108,2.272-.919,3.84-2.326,4.651a9.724,9.724,0,0,1-4.543.811H52.3V37.937h3.029L53.382,26.254h3.84l1.731,11.791a5.39,5.39,0,0,0,2.65-.433,3.015,3.015,0,0,0,.865-2.434L62.9,26.2h3.786Z" transform="translate(-29.259 -26.092)"/>
      <path id="Path_123" data-name="Path 123" class="cls-2" d="M97.636,40.717H90.064v-2.6H93.9V31.792c0-1.785-.865-2.7-2.65-2.7a2.306,2.306,0,0,0-2.109,1.082A5.8,5.8,0,0,0,88.5,31.9a13.812,13.812,0,0,0-.487,2.434l-.974,6.382H83.3l.919-5.733a7.568,7.568,0,0,0,.108-2.38c-.379-1.352-.974-3.3-1.731-5.841V26.6h3.948c.108.379.27.865.379,1.406s.325,1.136.487,1.785c0,.054,0,.054.054.054h.108a3.891,3.891,0,0,1,2.055-2.813,6.545,6.545,0,0,1,2.65-.433,5.94,5.94,0,0,1,3.948,1.082,4.988,4.988,0,0,1,1.352,3.948v9.087Z" transform="translate(-43.171 -26.275)"/>
      <path id="Path_124" data-name="Path 124" class="cls-2" d="M133.024,26.5l-.7,8.546c-.216,2.38-.919,3.948-2.163,4.706s-3.624,1.136-7.139,1.136c-.974,0-1.947-.054-3.029-.108s-2.272-.162-3.516-.27L115.5,26.554h3.84l.27,7.031c.162,0,.325.054.487.054h.541q1.541,0,1.623-1.136l.162-5.95H126.1l-.379,6.058c-.108,2.055-1.46,3.029-4.111,3.029a13.906,13.906,0,0,1-1.893-.054l.108,2.542c.7.054,1.3.108,1.839.108s1.028.054,1.514.054a11.947,11.947,0,0,0,3.948-.433,2.666,2.666,0,0,0,1.46-2.488l.649-8.87h3.786Z" transform="translate(-58.276 -26.23)"/>
      <path id="Path_125" data-name="Path 125" class="cls-2" d="M177.289,45.255H173.5V31.192c0-1.731-.919-2.542-2.7-2.542h-.108c-1.731,0-2.6.757-2.6,2.326v.108a2.239,2.239,0,0,0,.541,1.677,1.557,1.557,0,0,0,1.136.487v2.272a2.9,2.9,0,0,1-1.3.27,4,4,0,0,1-2.38-.649,4.546,4.546,0,0,1-1.893-3.948,4.7,4.7,0,0,1,1.514-3.678A7.06,7.06,0,0,1,170.636,26c4.435,0,6.6,1.839,6.6,5.571V45.255Z" transform="translate(-80.636 -26)"/>
      <path id="Path_126" data-name="Path 126" class="cls-2" d="M208.112,31.368a13.33,13.33,0,0,1-1.3,6.058c-1.136,2.326-3.191,3.462-6.166,3.462a6.49,6.49,0,0,1-4.6-1.406,7.631,7.631,0,0,1-2-5.138L193.4,26.5h9.465a5.8,5.8,0,0,1,4,1.136A5.087,5.087,0,0,1,208.112,31.368Zm-3.786.379a2.278,2.278,0,0,0-2.542-2.6h-4.435l.379,5.679c.162,2.38,1.136,3.516,2.921,3.516a2.9,2.9,0,0,0,2.272-.865C203.839,36.506,204.326,34.559,204.326,31.746Z" transform="translate(-94.043 -26.23)"/>
      <path id="Path_127" data-name="Path 127" class="cls-2" d="M238.82,40.671h-4.327l-5.084-7.248c-.325,0-.541.379-.7,1.082l-1.028,6.22h-3.624l.919-5.138c.379-2.272,1.514-3.516,3.245-3.57L224,26.77v-.216h4.327l4.76,6.436c.216-.108.379-.487.487-1.082L234.6,26.5h3.624l-.919,4.489c-.433,2.109-1.46,3.245-3.083,3.516l4.489,6.058v.108Z" transform="translate(-108.093 -26.23)"/>
    </g>
    <g id="Group_25" data-name="Group 25" transform="translate(96.923 -0.1)">
      <path id="Path_128" data-name="Path 128" d="M180.336,9.519H179.2V0h1.136Z" transform="translate(-179.2 0.054)"/>
      <path id="Path_129" data-name="Path 129" d="M186.136,3.732H185V0h1.136Z" transform="translate(-181.863 0.054)"/>
      <path id="Path_130" data-name="Path 130" d="M195.55.974h-1.028V7.139h-1.136V.974H189.6V0h6V.974Z" transform="translate(-183.975 0.054)"/>
      <path id="Path_131" data-name="Path 131" d="M214.538,9.519H213.4V2.488c0-.649-.162-1.082-.433-1.244a3.223,3.223,0,0,0-1.731-.27,13.828,13.828,0,0,0-1.839.108V.108A17.914,17.914,0,0,1,211.563,0a3.48,3.48,0,0,1,2.38.649,2.429,2.429,0,0,1,.649,1.893V9.519Z" transform="translate(-193.066 0.054)"/>
      <path id="Path_132" data-name="Path 132" d="M227.038,7.185H225.9V2.426a1.387,1.387,0,0,0-.433-1.136,3.531,3.531,0,0,0-1.893-.325c-.541,0-1.136.054-1.677.108V.154A4.1,4.1,0,0,1,222.765.1H223.9a4.216,4.216,0,0,1,2.542.541,2.152,2.152,0,0,1,.7,1.731V7.185Z" transform="translate(-198.805 0.008)"/>
      <path id="Path_133" data-name="Path 133" d="M236.136,7.139H235V0h1.136Z" transform="translate(-204.82 0.054)"/>
      <path id="Path_134" data-name="Path 134" d="M246.028-.046l-.216,4.111a3.975,3.975,0,0,1-.379,1.623,2.494,2.494,0,0,1-1.082,1.028,3.548,3.548,0,0,1-1.677.325H239.7V6.12h1.677L240.295-.1h1.136l.974,6.274a2.782,2.782,0,0,0,1.352-.216,1.479,1.479,0,0,0,.7-.7,2.715,2.715,0,0,0,.216-1.082L244.892-.1h1.136Z" transform="translate(-206.978 0.1)"/>
    </g>
    <g id="Group_26" data-name="Group 26" transform="translate(0 35.219)">
      <path id="Path_135" data-name="Path 135" class="cls-3" d="M5.841,67.58,5.3,72.015a3.265,3.265,0,0,1-.811,2,2.874,2.874,0,0,1-2,.649H.919v-.919H2.38a1.56,1.56,0,0,0,1.244-.379,2.43,2.43,0,0,0,.541-1.352L4.6,68.5H0V65.2H1.136v2.38Z" transform="translate(0 -65.2)"/>
      <path id="Path_136" data-name="Path 136" class="cls-3" d="M19.328,69.554l-.216,4.111a3.975,3.975,0,0,1-.379,1.623,2.5,2.5,0,0,1-1.082,1.028,3.548,3.548,0,0,1-1.677.325H13V75.72h1.677L13.595,69.5h1.136l.974,6.274a2.782,2.782,0,0,0,1.352-.216,1.479,1.479,0,0,0,.7-.7,2.714,2.714,0,0,0,.216-1.082l.216-4.273h1.136Z" transform="translate(-5.969 -67.174)"/>
      <path id="Path_137" data-name="Path 137" class="cls-3" d="M29.336,76.685H28.2V69.6h1.136Z" transform="translate(-12.948 -67.22)"/>
      <path id="Path_138" data-name="Path 138" class="cls-3" d="M39.936,72.978a3.6,3.6,0,0,1-1.3,3.083,4.079,4.079,0,0,1-2.38.541,6.447,6.447,0,0,1-2.326-.325v-.919a6.648,6.648,0,0,0,2.326.27,2.7,2.7,0,0,0,1.947-.595,2.7,2.7,0,0,0,.595-1.947V72.87a3.006,3.006,0,0,0-.595-2.055,2.239,2.239,0,0,0-1.623-.541h-.108c-1.19,0-1.785.541-1.785,1.569V71.9a1.2,1.2,0,0,0,.379,1.028,1.329,1.329,0,0,0,.811.27v.811h-.433a1.8,1.8,0,0,1-1.352-.487,2.391,2.391,0,0,1-.595-1.731,2.249,2.249,0,0,1,.757-1.731,3.433,3.433,0,0,1,2.326-.757c2.272,0,3.407,1.19,3.407,3.516v.162Z" transform="translate(-15.381 -67.082)"/>
      <path id="Path_139" data-name="Path 139" class="cls-3" d="M53.587,67.58l-.541,4.435a3.265,3.265,0,0,1-.811,2,2.874,2.874,0,0,1-2,.649H48.719v-.919h1.46a1.56,1.56,0,0,0,1.244-.379,2.43,2.43,0,0,0,.541-1.352L52.4,68.5H47.8V65.2h1.136v2.38Z" transform="translate(-21.947 -65.2)"/>
      <path id="Path_140" data-name="Path 140" class="cls-3" d="M74.45,76.594H73.314v-4.76a1.284,1.284,0,0,0-.595-1.244,4.395,4.395,0,0,0-1.839-.216,13.172,13.172,0,0,0-2.38.162v-.974a8.1,8.1,0,0,1,1.19-.108c.433,0,.865-.054,1.352-.054a5.37,5.37,0,0,1,2.488.433,2.107,2.107,0,0,1,.919,1.893Zm-4.651,0H68.662V72.645H69.8Z" transform="translate(-31.451 -67.128)"/>
      <path id="Path_141" data-name="Path 141" class="cls-3" d="M89.061,76.594H87.817c-.757-1.028-1.406-1.893-1.893-2.542s-.919-1.136-1.19-1.46c-.487.162-.811.811-.974,2l-.325,1.947H82.3l.379-2.055c.27-1.352.811-2.163,1.731-2.434l-2-2.542V69.4h1.244c.325.433.7.919,1.19,1.514s1.028,1.3,1.623,2.109c.433-.216.7-.811.865-1.893L87.6,69.4h1.136l-.325,1.731a3.052,3.052,0,0,1-.811,1.785,1.567,1.567,0,0,1-.811.595c.27.379.595.757.974,1.244s.811,1.028,1.3,1.677Z" transform="translate(-37.787 -67.128)"/>
      <path id="Path_142" data-name="Path 142" class="cls-3" d="M102.2,69.554l-.325,1.947a3.213,3.213,0,0,1-.7,1.677,2.731,2.731,0,0,1-.974.595l1.731,2.65v.216H96.47V75.72h3.786L96.2,69.5h1.244l2.38,3.732c.433-.216.7-.865.865-2l.27-1.731H102.2Z" transform="translate(-44.169 -67.174)"/>
      <path id="Path_143" data-name="Path 143" class="cls-3" d="M111.836,76.685H110.7V69.6h1.136Z" transform="translate(-50.826 -67.22)"/>
      <path id="Path_144" data-name="Path 144" class="cls-3" d="M122.25,76.594h-1.136v-4.76a1.283,1.283,0,0,0-.595-1.244,4.395,4.395,0,0,0-1.839-.216,13.172,13.172,0,0,0-2.38.162v-.974a8.1,8.1,0,0,1,1.19-.108c.433,0,.865-.054,1.352-.054a5.37,5.37,0,0,1,2.488.433,2.107,2.107,0,0,1,.919,1.893Zm-4.651,0h-1.136V72.645H117.6Z" transform="translate(-53.397 -67.128)"/>
      <path id="Path_145" data-name="Path 145" class="cls-3" d="M132.136,76.685H131V69.6h1.136Z" transform="translate(-60.147 -67.22)"/>
      <path id="Path_146" data-name="Path 146" class="cls-3" d="M148.587,67.58l-.541,4.435a3.265,3.265,0,0,1-.811,2,2.874,2.874,0,0,1-2,.649h-1.514v-.919h1.46a1.559,1.559,0,0,0,1.244-.379,2.429,2.429,0,0,0,.541-1.352L147.4,68.5h-4.6V65.2h1.136v2.38Z" transform="translate(-65.564 -65.2)"/>
      <path id="Path_147" data-name="Path 147" class="cls-3" d="M160.065,76.731h-1.136a5.351,5.351,0,0,1-.325-1.893c0-.054,0-.054-.054-.054s-.054,0-.054.054l-.216.649a.872.872,0,0,1-.216.379,2.842,2.842,0,0,1-.757.595,3.1,3.1,0,0,0-.379.216c-.162.054-.27.108-.433.162a1.513,1.513,0,0,1-.595.108l.162-1.082a3.371,3.371,0,0,0,2.109-1.352,1.882,1.882,0,0,0,.325-1.136V71.809a1.329,1.329,0,0,0-.27-.919,1.393,1.393,0,0,0-.974-.27,3.363,3.363,0,0,0-.865.054v-.865a5.135,5.135,0,0,1,1.082-.108,4.853,4.853,0,0,1,.974.108,1.476,1.476,0,0,1,1.028,1.028,2.531,2.531,0,0,1,.108.919v2.434a7.714,7.714,0,0,0,.379,2.488v.054Z" transform="translate(-71.579 -67.266)"/>
      <path id="Path_148" data-name="Path 148" class="cls-3" d="M171.038,76.731H169.9V72.026a1.387,1.387,0,0,0-.433-1.136,3.531,3.531,0,0,0-1.893-.325c-.541,0-1.136.054-1.677.108v-.919a4.1,4.1,0,0,1,.865-.054H167.9a4.216,4.216,0,0,1,2.542.541,2.152,2.152,0,0,1,.7,1.731v4.76Z" transform="translate(-76.171 -67.266)"/>
      <path id="Path_149" data-name="Path 149" class="cls-3" d="M191.894,76.731h-1.136V71.863c0-.811-.433-1.244-1.352-1.244H187.35v4.489a1.606,1.606,0,0,1-.595,1.352,1.748,1.748,0,0,1-1.19.379,2.242,2.242,0,0,1-.865-.162v-.865a2.3,2.3,0,0,0,.595.108c.595,0,.919-.27.919-.757V70.674h-1.082V69.7H189.3a3.566,3.566,0,0,1,2.109.487A2.043,2.043,0,0,1,192,71.809v4.922Z" transform="translate(-84.802 -67.266)"/>
      <path id="Path_150" data-name="Path 150" class="cls-3" d="M207.49,69.6l-.325,4.489a2.946,2.946,0,0,1-.757,2.109,3.578,3.578,0,0,1-2.326.541,15.425,15.425,0,0,1-2.65-.162L201,69.6h1.136l.325,6.22a3.832,3.832,0,0,0,.757.054h.7a3.175,3.175,0,0,0,1.623-.27,1.8,1.8,0,0,0,.541-1.406l.216-3.624h-2.218V69.6Z" transform="translate(-92.286 -67.22)"/>
      <path id="Path_151" data-name="Path 151" class="cls-3" d="M217.736,73.378H216.6V69.7h1.136Z" transform="translate(-99.449 -67.266)"/>
      <path id="Path_152" data-name="Path 152" class="cls-3" d="M229.788,69.554l-.379,4.111a3.273,3.273,0,0,1-1.028,2.38,4.679,4.679,0,0,1-2.812.649,20.8,20.8,0,0,1-3.083-.162L222,69.554h1.136l.216,3.678h.595c.487,0,.757-.054.865-.162a1.326,1.326,0,0,0,.379-.919l.108-2.6h1.136l-.162,2.542a2.306,2.306,0,0,1-.595,1.514,1.991,1.991,0,0,1-1.406.379,4.951,4.951,0,0,1-.919-.054l.108,1.785a7.989,7.989,0,0,0,1.136.054h.919a3.73,3.73,0,0,0,2-.379,2.071,2.071,0,0,0,.757-1.569l.379-4.327h1.136Z" transform="translate(-101.928 -67.174)"/>
      <path id="Path_153" data-name="Path 153" class="cls-3" d="M245.936,72.978a3.6,3.6,0,0,1-1.3,3.083,4.079,4.079,0,0,1-2.38.541,6.447,6.447,0,0,1-2.326-.325v-.919a6.648,6.648,0,0,0,2.326.27,2.168,2.168,0,0,0,2.542-2.542V72.87a3.007,3.007,0,0,0-.595-2.055,2.239,2.239,0,0,0-1.623-.541h-.108c-1.19,0-1.785.541-1.785,1.569V71.9a1.2,1.2,0,0,0,.379,1.028,1.328,1.328,0,0,0,.811.27v.811h-.433a1.8,1.8,0,0,1-1.352-.487,2.391,2.391,0,0,1-.595-1.731,2.249,2.249,0,0,1,.757-1.731,3.433,3.433,0,0,1,2.326-.757c2.272,0,3.407,1.19,3.407,3.516v.162Z" transform="translate(-109.963 -67.082)"/>
    </g>
    <rect id="Rectangle_42" data-name="Rectangle 42" class="cls-1" width="1.082" height="44.892" transform="translate(144.195 -0.046)"/>
  </g>
</svg>
