<svg xmlns="http://www.w3.org/2000/svg" viewBox="0 0 334.6 83.2">
  <defs>
    <style>
      .cls-1 {
        fill: #fff;
      }
    </style>
  </defs>
  <g id="logo" transform="translate(0 0.1)">
    <g id="Group_1" data-name="Group 1">
      <path id="Path_43" data-name="Path 43" class="cls-1" d="M310.1,46.9h-9c-4.3,0-5.1.6-6.3,4.6,0,.1-.1.2-.1.3-2,6.5-2,6.5,4.6,8.1,0,.6.1,1.3.1,2a13.664,13.664,0,0,1-.2,1.9H282.3c.8-2.6,1.5-5,2.2-7.3C290.3,38.7,296.2,20.8,302,3c.7-2.2,1.7-3,4.1-3,5.9.1,6,0,7.9,5.7,6.4,18.5,12.8,37.1,19.2,55.6.3.8.4,1.5.7,2.6H313.2V60.1c.1-.1.3-.3.4-.3,5.5-1.3,5.6-1.4,3.8-6.9-3.8-12.2-7.6-24.4-11.4-36.7a6.872,6.872,0,0,0-.6-1.3c-2.1,7.3-4.2,14.4-6.3,21.5-.7,2.3.1,3.6,2.7,3.4h.9C308.8,39.9,308.8,39.9,310.1,46.9Z"/>
      <path id="Path_44" data-name="Path 44" class="cls-1" d="M334.6,69.6C328.1,78.2,320,82.7,309.7,83c-11.1.3-19.9-4.2-27-13.4Z"/>
    </g>
    <g id="Group_2" data-name="Group 2">
      <path id="Path_45" data-name="Path 45" class="cls-1" d="M16.6,41.5H9.7v-15h6.9Z"/>
      <path id="Path_46" data-name="Path 46" class="cls-1" d="M35.1,52.7h-14V48h7.1V33.6c0-1.5-1.2-2.3-3.6-2.3H23.4c-.5,0-1.1.1-1.8.1V26.7a37.36,37.36,0,0,1,5.2-.3c2.8,0,4.8.6,6.1,1.7,1.5,1.3,2.2,3.4,2.2,6.3Z"/>
      <path id="Path_47" data-name="Path 47" class="cls-1" d="M47.9,52.7H41V26.5h6.9Z"/>
      <path id="Path_48" data-name="Path 48" class="cls-1" d="M78.9,26.5l-.9,16c-.2,4.2-1.7,7.1-4.3,8.6q-2.7,1.5-8.4,1.5h-13V47.9h5.6L54.3,26.3h7.1l3.2,21.8c2.5,0,4.2-.3,4.9-.8,1-.7,1.5-2.2,1.6-4.5l.8-16.6h7Z"/>
      <path id="Path_49" data-name="Path 49" class="cls-1" d="M110.4,52.7h-14V47.9h7.1V36.2c0-3.3-1.6-5-4.9-5a4.263,4.263,0,0,0-3.9,2,10.718,10.718,0,0,0-1.2,3.2,25.535,25.535,0,0,0-.9,4.5L90.8,52.7H83.9l1.7-10.6a13.994,13.994,0,0,0,.2-4.4c-.7-2.5-1.8-6.1-3.2-10.8v-.3h7.3c.2.7.5,1.6.7,2.6s.6,2.1.9,3.3c0,.1,0,.1.1.1h.2c.7-2.7,2-4.4,3.8-5.2a12.1,12.1,0,0,1,4.9-.8c3.4,0,5.8.7,7.3,2,1.7,1.5,2.5,3.9,2.5,7.3V52.7Z"/>
      <path id="Path_50" data-name="Path 50" class="cls-1" d="M147.9,26.5l-1.3,15.8c-.4,4.4-1.7,7.3-4,8.7s-6.7,2.1-13.2,2.1c-1.8,0-3.6-.1-5.6-.2s-4.2-.3-6.5-.5l-1.8-25.8h7.1l.5,13c.3,0,.6.1.9.1h1q2.85,0,3-2.1l.3-11h6.8l-.7,11.2c-.2,3.8-2.7,5.6-7.6,5.6a25.711,25.711,0,0,1-3.5-.1l.2,4.7c1.3.1,2.4.2,3.4.2s1.9.1,2.8.1c3.7,0,6.1-.3,7.3-.8,1.6-.7,2.5-2.2,2.7-4.6l1.2-16.4h7Z"/>
      <path id="Path_51" data-name="Path 51" class="cls-1" d="M188.4,61.6h-7v-26c0-3.2-1.7-4.7-5-4.7h-.2c-3.2,0-4.8,1.4-4.8,4.3v.2a4.139,4.139,0,0,0,1,3.1,2.878,2.878,0,0,0,2.1.9v4.2a5.356,5.356,0,0,1-2.4.5,7.391,7.391,0,0,1-4.4-1.2,8.406,8.406,0,0,1-3.5-7.3,8.687,8.687,0,0,1,2.8-6.8c2.1-1.9,5.1-2.8,9.1-2.8,8.2,0,12.2,3.4,12.2,10.3V61.6Z"/>
      <path id="Path_52" data-name="Path 52" class="cls-1" d="M220.6,35.5a24.645,24.645,0,0,1-2.4,11.2c-2.1,4.3-5.9,6.4-11.4,6.4-3.9,0-6.7-.9-8.5-2.6-2.1-2-3.4-5.2-3.7-9.5l-1.2-14.5h17.5c3.4,0,5.9.7,7.4,2.1C219.8,30.1,220.6,32.4,220.6,35.5Zm-7,.7c0-3.2-1.6-4.8-4.7-4.8h-8.2l.7,10.5c.3,4.4,2.1,6.5,5.4,6.5a5.359,5.359,0,0,0,4.2-1.6C212.7,45,213.6,41.4,213.6,36.2Z"/>
      <path id="Path_53" data-name="Path 53" class="cls-1" d="M251.4,52.7h-8L234,39.3c-.6,0-1,.7-1.3,2l-1.9,11.5h-6.7l1.7-9.5c.7-4.2,2.8-6.5,6-6.6L224,27v-.4h8l8.8,11.9c.4-.2.7-.9.9-2l1.9-10h6.7l-1.7,8.3c-.8,3.9-2.7,6-5.7,6.5l8.3,11.2v.2Z"/>
    </g>
    <g id="Group_3" data-name="Group 3">
      <path id="Path_54" data-name="Path 54" class="cls-1" d="M181.3,17.6h-2.1V0h2.1Z"/>
      <path id="Path_55" data-name="Path 55" class="cls-1" d="M187.1,6.9H185V0h2.1Z"/>
      <path id="Path_56" data-name="Path 56" class="cls-1" d="M200.6,1.8h-1.9V13.2h-2.1V1.8h-7V0h11.1V1.8Z"/>
      <path id="Path_57" data-name="Path 57" class="cls-1" d="M218.9,17.6h-2.1V4.6c0-1.2-.3-2-.8-2.3-.5-.4-1.6-.5-3.2-.5a25.565,25.565,0,0,0-3.4.2V.2a33.121,33.121,0,0,1,4-.2c2.1,0,3.5.4,4.4,1.2A4.491,4.491,0,0,1,219,4.7V17.6Z"/>
      <path id="Path_58" data-name="Path 58" class="cls-1" d="M231.4,13.2h-2.1V4.4a2.564,2.564,0,0,0-.8-2.1c-.5-.4-1.7-.6-3.5-.6-1,0-2.1.1-3.1.2V.2a7.589,7.589,0,0,1,1.6-.1h2.1c2.3,0,3.8.3,4.7,1a3.979,3.979,0,0,1,1.3,3.2v8.9Z"/>
      <path id="Path_59" data-name="Path 59" class="cls-1" d="M237.1,13.2H235V0h2.1Z"/>
      <path id="Path_60" data-name="Path 60" class="cls-1" d="M251.4,0,251,7.6a7.349,7.349,0,0,1-.7,3,4.612,4.612,0,0,1-2,1.9,6.559,6.559,0,0,1-3.1.6h-5.5V11.4h3.1l-2-11.5h2.1l1.8,11.6a5.143,5.143,0,0,0,2.5-.4,2.735,2.735,0,0,0,1.3-1.3,5.019,5.019,0,0,0,.4-2l.4-7.9h2.1Z"/>
    </g>
    <g id="Group_4" data-name="Group 4">
      <path id="Path_61" data-name="Path 61" class="cls-1" d="M10.8,69.6l-1,8.2a6.036,6.036,0,0,1-1.5,3.7,5.314,5.314,0,0,1-3.7,1.2H1.7V81H4.4a2.884,2.884,0,0,0,2.3-.7,4.492,4.492,0,0,0,1-2.5l.8-6.5H0V65.2H2.1v4.4h8.7Z"/>
      <path id="Path_62" data-name="Path 62" class="cls-1" d="M24.7,69.6l-.4,7.6a7.349,7.349,0,0,1-.7,3,4.612,4.612,0,0,1-2,1.9,6.559,6.559,0,0,1-3.1.6H13V81h3.1l-2-11.5h2.1L18,81.1a5.143,5.143,0,0,0,2.5-.4,2.735,2.735,0,0,0,1.3-1.3,5.019,5.019,0,0,0,.4-2l.4-7.9h2.1Z"/>
      <path id="Path_63" data-name="Path 63" class="cls-1" d="M30.3,82.7H28.2V69.6h2.1Z"/>
      <path id="Path_64" data-name="Path 64" class="cls-1" d="M45.4,76.1q0,3.9-2.4,5.7a7.542,7.542,0,0,1-4.4,1,11.921,11.921,0,0,1-4.3-.6V80.5a12.291,12.291,0,0,0,4.3.5,4.99,4.99,0,0,0,3.6-1.1,4.99,4.99,0,0,0,1.1-3.6v-.4a5.559,5.559,0,0,0-1.1-3.8,4.14,4.14,0,0,0-3-1H39c-2.2,0-3.3,1-3.3,2.9v.1a2.226,2.226,0,0,0,.7,1.9,2.456,2.456,0,0,0,1.5.5V78h-.8a3.328,3.328,0,0,1-2.5-.9,4.421,4.421,0,0,1-1.1-3.2,4.158,4.158,0,0,1,1.4-3.2,6.348,6.348,0,0,1,4.3-1.4c4.2,0,6.3,2.2,6.3,6.5v.3Z"/>
      <path id="Path_65" data-name="Path 65" class="cls-1" d="M58.5,69.6l-1,8.2A6.036,6.036,0,0,1,56,81.5a5.314,5.314,0,0,1-3.7,1.2H49.5V81h2.7a2.884,2.884,0,0,0,2.3-.7,4.492,4.492,0,0,0,1-2.5l.8-6.5H47.8V65.2h2.1v4.4h8.6Z"/>
      <path id="Path_66" data-name="Path 66" class="cls-1" d="M79.5,82.7H77.4V73.9a2.373,2.373,0,0,0-1.1-2.3,8.125,8.125,0,0,0-3.4-.4,24.352,24.352,0,0,0-4.4.3V69.7a14.979,14.979,0,0,1,2.2-.2c.8,0,1.6-.1,2.5-.1a9.928,9.928,0,0,1,4.6.8,3.9,3.9,0,0,1,1.7,3.5v9Zm-8.6,0H68.8V75.4h2.1Z"/>
      <path id="Path_67" data-name="Path 67" class="cls-1" d="M94.8,82.7H92.5c-1.4-1.9-2.6-3.5-3.5-4.7s-1.7-2.1-2.2-2.7c-.9.3-1.5,1.5-1.8,3.7l-.6,3.6H82.3l.7-3.8c.5-2.5,1.5-4,3.2-4.5l-3.7-4.7v-.2h2.3c.6.8,1.3,1.7,2.2,2.8s1.9,2.4,3,3.9c.8-.4,1.3-1.5,1.6-3.5l.5-3.2h2.1l-.6,3.2a5.642,5.642,0,0,1-1.5,3.3A2.9,2.9,0,0,1,90.6,77c.5.7,1.1,1.4,1.8,2.3s1.5,1.9,2.4,3.1Z"/>
      <path id="Path_68" data-name="Path 68" class="cls-1" d="M107.3,69.6l-.6,3.6a5.941,5.941,0,0,1-1.3,3.1,5.05,5.05,0,0,1-1.8,1.1l3.2,4.9v.4H96.7V81h7L96.2,69.5h2.3l4.4,6.9c.8-.4,1.3-1.6,1.6-3.7l.5-3.2h2.3Z"/>
      <path id="Path_69" data-name="Path 69" class="cls-1" d="M112.8,82.7h-2.1V69.6h2.1Z"/>
      <path id="Path_70" data-name="Path 70" class="cls-1" d="M127.3,82.7h-2.1V73.9a2.373,2.373,0,0,0-1.1-2.3,8.125,8.125,0,0,0-3.4-.4,24.352,24.352,0,0,0-4.4.3V69.7a14.979,14.979,0,0,1,2.2-.2c.8,0,1.6-.1,2.5-.1a9.928,9.928,0,0,1,4.6.8,3.9,3.9,0,0,1,1.7,3.5v9Zm-8.6,0h-2.1V75.4h2.1Z"/>
      <path id="Path_71" data-name="Path 71" class="cls-1" d="M133.1,82.7H131V69.6h2.1Z"/>
      <path id="Path_72" data-name="Path 72" class="cls-1" d="M153.5,69.6l-1,8.2a6.036,6.036,0,0,1-1.5,3.7,5.314,5.314,0,0,1-3.7,1.2h-2.8V81h2.7a2.884,2.884,0,0,0,2.3-.7,4.492,4.492,0,0,0,1-2.5l.8-6.5h-8.5V65.2h2.1v4.4h8.6Z"/>
      <path id="Path_73" data-name="Path 73" class="cls-1" d="M163.6,82.7h-2.1a9.893,9.893,0,0,1-.6-3.5c0-.1,0-.1-.1-.1s-.1,0-.1.1l-.4,1.2a1.612,1.612,0,0,1-.4.7,5.255,5.255,0,0,1-1.4,1.1,5.736,5.736,0,0,0-.7.4c-.3.1-.5.2-.8.3a2.8,2.8,0,0,1-1.1.2l.3-2a6.232,6.232,0,0,0,3.9-2.5,3.48,3.48,0,0,0,.6-2.1V73.6a2.457,2.457,0,0,0-.5-1.7,2.575,2.575,0,0,0-1.8-.5,6.22,6.22,0,0,0-1.6.1V69.9a9.492,9.492,0,0,1,2-.2,8.969,8.969,0,0,1,1.8.2,2.729,2.729,0,0,1,1.9,1.9,4.678,4.678,0,0,1,.2,1.7V78a14.264,14.264,0,0,0,.7,4.6v.1Z"/>
      <path id="Path_74" data-name="Path 74" class="cls-1" d="M175.4,82.7h-2.1V74a2.564,2.564,0,0,0-.8-2.1c-.5-.4-1.7-.6-3.5-.6-1,0-2.1.1-3.1.2V69.8a7.589,7.589,0,0,1,1.6-.1h2.1c2.3,0,3.8.3,4.7,1a3.979,3.979,0,0,1,1.3,3.2v8.8Z"/>
      <path id="Path_75" data-name="Path 75" class="cls-1" d="M198,82.7h-2.1v-9c0-1.5-.8-2.3-2.5-2.3h-3.8v8.3a2.97,2.97,0,0,1-1.1,2.5,3.232,3.232,0,0,1-2.2.7,4.145,4.145,0,0,1-1.6-.3V81a4.253,4.253,0,0,0,1.1.2c1.1,0,1.7-.5,1.7-1.4V71.5h-2V69.7h7.7a6.593,6.593,0,0,1,3.9.9,3.777,3.777,0,0,1,1.1,3v9.1Z"/>
      <path id="Path_76" data-name="Path 76" class="cls-1" d="M213,69.6l-.6,8.3c-.1,1.9-.6,3.2-1.4,3.9s-2.2,1-4.3,1a28.519,28.519,0,0,1-4.9-.3L201,69.6h2.1l.6,11.5a7.084,7.084,0,0,0,1.4.1h1.3a5.87,5.87,0,0,0,3-.5c.6-.4.9-1.3,1-2.6l.4-6.7h-4.1V69.6Z"/>
      <path id="Path_77" data-name="Path 77" class="cls-1" d="M218.7,76.5h-2.1V69.7h2.1Z"/>
      <path id="Path_78" data-name="Path 78" class="cls-1" d="M236.4,69.6l-.7,7.6c-.2,2.1-.8,3.5-1.9,4.4-1,.8-2.8,1.2-5.2,1.2a38.469,38.469,0,0,1-5.7-.3L222,69.6h2.1l.4,6.8h1.1c.9,0,1.4-.1,1.6-.3a2.451,2.451,0,0,0,.7-1.7l.2-4.8h2.1l-.3,4.7a4.264,4.264,0,0,1-1.1,2.8,3.682,3.682,0,0,1-2.6.7,9.15,9.15,0,0,1-1.7-.1l.2,3.3a14.769,14.769,0,0,0,2.1.1h1.7a6.9,6.9,0,0,0,3.7-.7,3.83,3.83,0,0,0,1.4-2.9l.7-8h2.1Z"/>
      <path id="Path_79" data-name="Path 79" class="cls-1" d="M251.4,76.1q0,3.9-2.4,5.7a7.542,7.542,0,0,1-4.4,1,11.921,11.921,0,0,1-4.3-.6V80.5a12.291,12.291,0,0,0,4.3.5,4.008,4.008,0,0,0,4.7-4.7v-.4a5.558,5.558,0,0,0-1.1-3.8,4.14,4.14,0,0,0-3-1H245c-2.2,0-3.3,1-3.3,2.9v.1a2.226,2.226,0,0,0,.7,1.9,2.456,2.456,0,0,0,1.5.5V78h-.8a3.328,3.328,0,0,1-2.5-.9,4.421,4.421,0,0,1-1.1-3.2,4.158,4.158,0,0,1,1.4-3.2,6.348,6.348,0,0,1,4.3-1.4c4.2,0,6.3,2.2,6.3,6.5v.3Z"/>
    </g>
    <rect id="Rectangle_11" data-name="Rectangle 11" class="cls-1" width="2" height="83" transform="translate(266.6)"/>
  </g>
</svg>
