<svg xmlns="http://www.w3.org/2000/svg" viewBox="0 0 158.492 176.051">
  <defs>
    <style>
      .cls-1 {
        fill: #fff;
      }
    </style>
  </defs>
  <g id="logo_mobile" transform="translate(0 0.005)">
    <path id="Path_80" data-name="Path 80" class="cls-1" d="M100.645,55.283H90.027c-5.026,0-6.017.779-7.433,5.451,0,.142-.071.212-.142.354-2.336,7.645-2.336,7.645,5.38,9.556,0,.779.142,1.557.071,2.407,0,.708-.142,1.416-.212,2.265H67.8c.92-3.044,1.7-5.875,2.619-8.636,6.866-21.094,13.874-42.118,20.67-63.213C91.938.848,93.142-.072,95.9,0c7.008.142,7.008,0,9.344,6.654q11.361,32.81,22.581,65.619c.283.92.5,1.84.849,3.044H104.326v-4.53c.142-.142.283-.354.5-.354,6.512-1.487,6.583-1.628,4.53-8.14-4.53-14.441-8.99-28.81-13.45-43.251a8.866,8.866,0,0,0-.708-1.487c-2.548,8.636-5.026,16.989-7.433,25.412-.779,2.69.142,4.176,3.115,4.035h1.062C99.088,47,99.088,47,100.645,55.283Z" transform="translate(-19.806 0)"/>
    <path id="Path_81" data-name="Path 81" class="cls-1" d="M129.76,116c-7.716,10.123-17.272,15.5-29.306,15.856-13.1.425-23.5-4.955-31.854-15.856Z" transform="translate(-20.04 -33.889)"/>
    <g id="Group_16" data-name="Group 16" transform="translate(3.044 125.504)">
      <path id="Path_82" data-name="Path 82" class="cls-1" d="M8.689,187.185H4.3V177.7H8.618v9.485Z" transform="translate(-4.3 -177.417)"/>
      <path id="Path_83" data-name="Path 83" class="cls-1" d="M23.248,194.135H14.4v-2.973h4.46V182.1c0-.991-.779-1.487-2.265-1.487h-.779c-.283,0-.708.071-1.133.071v-2.973a20.854,20.854,0,0,1,3.256-.212,5.607,5.607,0,0,1,3.822,1.062,4.989,4.989,0,0,1,1.416,3.964v11.609Z" transform="translate(-7.251 -177.358)"/>
      <path id="Path_84" data-name="Path 84" class="cls-1" d="M36.518,194.193H32.2V177.7h4.318Z" transform="translate(-12.45 -177.417)"/>
      <path id="Path_85" data-name="Path 85" class="cls-1" d="M58.976,177.7l-.566,10.123c-.142,2.619-1.062,4.46-2.69,5.451a11.193,11.193,0,0,1-5.309.991H42.2v-2.973h3.539L43.474,177.7h4.46l1.982,13.733a6,6,0,0,0,3.115-.5c.637-.425.92-1.345.991-2.831l.5-10.406Z" transform="translate(-15.372 -177.417)"/>
      <path id="Path_86" data-name="Path 86" class="cls-1" d="M86.684,194.223H77.836v-3.044H82.3v-7.362a2.772,2.772,0,0,0-3.115-3.115,2.48,2.48,0,0,0-2.407,1.274A8.891,8.891,0,0,0,76,183.958a22.165,22.165,0,0,0-.566,2.831L74.3,194.223H69.979l1.062-6.654a9.986,9.986,0,0,0,.142-2.761c-.5-1.557-1.133-3.822-1.982-6.8V177.8h4.6c.142.5.283.991.425,1.628s.354,1.345.566,2.124c0,.071,0,.071.071.071H75a4.74,4.74,0,0,1,2.407-3.327,7.118,7.118,0,0,1,3.115-.5c2.124,0,3.681.425,4.6,1.274,1.062.92,1.557,2.478,1.557,4.6v10.547Z" transform="translate(-23.259 -177.446)"/>
      <path id="Path_87" data-name="Path 87" class="cls-1" d="M118.828,177.671l-.849,9.91c-.212,2.761-1.062,4.6-2.548,5.451-1.416.849-4.247,1.274-8.353,1.274-1.133,0-2.265,0-3.539-.071s-2.619-.142-4.106-.283L98.3,177.671h4.46l.354,8.141c.142,0,.354.071.566.071h.637c1.2,0,1.84-.425,1.84-1.345l.212-6.937h4.318l-.425,7.079c-.142,2.336-1.7,3.539-4.814,3.539a13.89,13.89,0,0,1-2.194-.071l.142,2.973c.779.071,1.487.142,2.194.142.637,0,1.2.071,1.77.071a12.788,12.788,0,0,0,4.6-.5c.991-.425,1.557-1.345,1.7-2.9l.779-10.335h4.389Z" transform="translate(-31.76 -177.388)"/>
      <path id="Path_88" data-name="Path 88" class="cls-1" d="M157.119,199.669H152.73V183.317q0-2.973-3.185-2.973H149.4c-1.982,0-2.973.92-2.973,2.69v.142a2.6,2.6,0,0,0,.637,1.911,1.813,1.813,0,0,0,1.345.566v2.69a3.1,3.1,0,0,1-1.487.283,4.739,4.739,0,0,1-5.026-5.309,5.357,5.357,0,0,1,1.77-4.247,8.671,8.671,0,0,1,5.734-1.77c5.167,0,7.716,2.194,7.716,6.512v15.856Z" transform="translate(-44.497 -177.3)"/>
      <path id="Path_89" data-name="Path 89" class="cls-1" d="M184.93,183.363a15.5,15.5,0,0,1-1.487,7.008q-2.017,4.035-7.22,4.035c-2.478,0-4.247-.566-5.38-1.628q-2.017-1.911-2.336-5.946L167.8,177.7h11.043c2.124,0,3.681.425,4.672,1.345A5.862,5.862,0,0,1,184.93,183.363Zm-4.46.425a2.628,2.628,0,0,0-2.973-2.973H172.33l.425,6.654c.212,2.761,1.345,4.106,3.4,4.106a3.412,3.412,0,0,0,2.619-.991C179.975,189.38,180.471,187.115,180.471,183.788Z" transform="translate(-52.063 -177.417)"/>
      <path id="Path_90" data-name="Path 90" class="cls-1" d="M212.23,194.193h-5.1l-5.875-8.494c-.425,0-.637.425-.779,1.2l-1.2,7.291H195.1l1.062-5.946c.5-2.69,1.7-4.035,3.822-4.176l-4.884-6.158V177.7h5.026l5.592,7.5c.283-.142.425-.566.566-1.2l1.2-6.3h4.176l-1.062,5.167c-.5,2.407-1.7,3.822-3.61,4.106l5.238,7.079v.142Z" transform="translate(-60.039 -177.417)"/>
    </g>
    <g id="Group_17" data-name="Group 17" transform="translate(56.417 109.081)">
      <path id="Path_91" data-name="Path 91" class="cls-1" d="M81.045,165.243H79.7V154.2h1.345Z" transform="translate(-79.7 -154.129)"/>
      <path id="Path_92" data-name="Path 92" class="cls-1" d="M86.245,158.518H84.9V154.2h1.345Z" transform="translate(-81.219 -154.129)"/>
      <path id="Path_93" data-name="Path 93" class="cls-1" d="M95.937,155.233h-1.2v7.149H93.389v-7.149H89V154.1h7.008v1.133Z" transform="translate(-82.417 -154.1)"/>
      <path id="Path_94" data-name="Path 94" class="cls-1" d="M112.617,165.214h-1.345v-8.14c0-.779-.142-1.2-.5-1.487a4.072,4.072,0,0,0-1.982-.354,16.133,16.133,0,0,0-2.194.142v-1.133a18.93,18.93,0,0,1,2.548-.142,4.146,4.146,0,0,1,2.761.779,2.93,2.93,0,0,1,.708,2.194Z" transform="translate(-87.558 -154.1)"/>
      <path id="Path_95" data-name="Path 95" class="cls-1" d="M123.717,162.382h-1.345v-5.521a1.576,1.576,0,0,0-.5-1.345,4.7,4.7,0,0,0-2.194-.354,18.654,18.654,0,0,0-1.982.142v-1.133a4.353,4.353,0,0,1,.991-.071h1.274a4.732,4.732,0,0,1,2.9.637,2.453,2.453,0,0,1,.779,1.982v5.663Z" transform="translate(-90.801 -154.1)"/>
      <path id="Path_96" data-name="Path 96" class="cls-1" d="M130.745,162.382H129.4V154.1h1.345Z" transform="translate(-94.219 -154.1)"/>
      <path id="Path_97" data-name="Path 97" class="cls-1" d="M140.933,154.171l-.283,4.743a4.24,4.24,0,0,1-.425,1.911,2.369,2.369,0,0,1-1.274,1.2,4.967,4.967,0,0,1-1.982.354H133.5V161.32h1.982l-1.2-7.22h1.345l1.133,7.291a3.815,3.815,0,0,0,1.557-.212,3.017,3.017,0,0,0,.849-.779,4.278,4.278,0,0,0,.283-1.274l.283-4.955Z" transform="translate(-95.417 -154.1)"/>
    </g>
    <g id="Group_18" data-name="Group 18" transform="translate(0 150.279)">
      <path id="Path_98" data-name="Path 98" class="cls-1" d="M6.8,214.99l-.637,5.167a3.962,3.962,0,0,1-.92,2.336,3.44,3.44,0,0,1-2.336.779H1.062V222.21h1.7a2.193,2.193,0,0,0,1.487-.425,2.929,2.929,0,0,0,.637-1.557l.5-4.106H0V212.3H1.345v2.761H6.8Z" transform="translate(0 -212.3)"/>
      <path id="Path_99" data-name="Path 99" class="cls-1" d="M18.933,216.071l-.283,4.743a4.24,4.24,0,0,1-.425,1.911,2.369,2.369,0,0,1-1.274,1.2,4.966,4.966,0,0,1-1.982.354H11.5V223.22h1.982l-1.2-7.22h1.345l1.133,7.291a3.815,3.815,0,0,0,1.557-.212,3.018,3.018,0,0,0,.849-.779,4.278,4.278,0,0,0,.283-1.274l.283-4.955h1.2Z" transform="translate(-3.36 -213.381)"/>
      <path id="Path_100" data-name="Path 100" class="cls-1" d="M26.445,224.282H25.1V216h1.345Z" transform="translate(-7.332 -213.381)"/>
      <path id="Path_101" data-name="Path 101" class="cls-1" d="M37.362,220.118a4.078,4.078,0,0,1-1.487,3.539,4.977,4.977,0,0,1-2.761.637,8.18,8.18,0,0,1-2.69-.354v-1.062a8.5,8.5,0,0,0,2.69.354,2.9,2.9,0,0,0,2.265-.708,3.324,3.324,0,0,0,.708-2.265v-.283a3.63,3.63,0,0,0-.637-2.407,2.42,2.42,0,0,0-1.84-.637h-.142c-1.416,0-2.124.637-2.124,1.84v.071a1.556,1.556,0,0,0,.425,1.2,1.305,1.305,0,0,0,.92.283v.92h-.425a2.086,2.086,0,0,1-1.557-.566A2.623,2.623,0,0,1,30,218.7a2.723,2.723,0,0,1,.849-2.053,3.954,3.954,0,0,1,2.69-.849c2.619,0,3.964,1.345,3.964,4.106v.212Z" transform="translate(-8.764 -213.322)"/>
      <path id="Path_102" data-name="Path 102" class="cls-1" d="M49.325,214.99l-.637,5.167a3.962,3.962,0,0,1-.92,2.336,3.44,3.44,0,0,1-2.336.779h-1.84V222.21h1.7a2.193,2.193,0,0,0,1.487-.425,2.929,2.929,0,0,0,.637-1.557l.5-4.106H42.6V212.3h1.345v2.761h5.38Z" transform="translate(-12.445 -212.3)"/>
      <path id="Path_103" data-name="Path 103" class="cls-1" d="M67.937,224.253H66.592v-5.521c0-.708-.212-1.2-.708-1.416a6.807,6.807,0,0,0-2.124-.212,24.975,24.975,0,0,0-2.761.142v-1.133c.425-.071.92-.071,1.416-.142.5,0,.991-.071,1.557-.071a5.921,5.921,0,0,1,2.9.5,2.4,2.4,0,0,1,1.062,2.194v5.663Zm-5.451,0H61.142v-4.6h1.345Z" transform="translate(-17.82 -213.352)"/>
      <path id="Path_104" data-name="Path 104" class="cls-1" d="M81.187,224.224H79.771c-.92-1.2-1.628-2.194-2.194-2.973s-1.062-1.345-1.345-1.7c-.566.142-.92.92-1.133,2.336l-.354,2.265H73.4l.425-2.407a3.331,3.331,0,0,1,1.982-2.831l-2.336-2.973V215.8h1.416c.354.5.849,1.062,1.416,1.77s1.2,1.487,1.911,2.478c.5-.212.849-.991.991-2.194l.283-2.053h1.345l-.354,2.053a4.159,4.159,0,0,1-.92,2.124,1.97,1.97,0,0,1-.991.637c.354.425.708.92,1.133,1.487s.92,1.2,1.487,1.911Z" transform="translate(-21.442 -213.322)"/>
      <path id="Path_105" data-name="Path 105" class="cls-1" d="M92.666,216.071l-.354,2.265a3.673,3.673,0,0,1-.849,1.982,2.506,2.506,0,0,1-1.133.637L92.383,224v.283H86.012V223.22h4.46L85.8,216h1.487l2.831,4.389q.743-.319,1.062-2.336L91.463,216h1.2Z" transform="translate(-25.065 -213.381)"/>
      <path id="Path_106" data-name="Path 106" class="cls-1" d="M99.745,224.282H98.4V216h1.345Z" transform="translate(-28.746 -213.381)"/>
      <path id="Path_107" data-name="Path 107" class="cls-1" d="M110.437,224.253h-1.345v-5.521c0-.708-.212-1.2-.708-1.416a6.807,6.807,0,0,0-2.124-.212,24.975,24.975,0,0,0-2.761.142v-1.133c.425-.071.92-.071,1.416-.142.5,0,.991-.071,1.557-.071a5.921,5.921,0,0,1,2.9.5,2.4,2.4,0,0,1,1.062,2.194Zm-5.451,0h-1.345v-4.6h1.345Z" transform="translate(-30.236 -213.352)"/>
      <path id="Path_108" data-name="Path 108" class="cls-1" d="M117.845,224.282H116.5V216h1.345Z" transform="translate(-34.033 -213.381)"/>
      <path id="Path_109" data-name="Path 109" class="cls-1" d="M133.8,214.99l-.637,5.167a3.962,3.962,0,0,1-.92,2.336,3.44,3.44,0,0,1-2.336.779h-1.77V222.21h1.7a2.193,2.193,0,0,0,1.487-.425,2.929,2.929,0,0,0,.637-1.557l.5-4.106H127V212.3h1.345v2.761H133.8Z" transform="translate(-37.101 -212.3)"/>
      <path id="Path_110" data-name="Path 110" class="cls-1" d="M143.584,224.282h-1.345a5.717,5.717,0,0,1-.354-2.194c0-.071,0-.071-.071-.071s-.071,0-.071.071l-.212.708-.212.425a2.441,2.441,0,0,1-.92.708l-.425.212a4.878,4.878,0,0,1-.566.212,5.926,5.926,0,0,1-.708.142l.212-1.2a4.54,4.54,0,0,0,2.478-1.557,2.041,2.041,0,0,0,.425-1.345v-1.84a1.674,1.674,0,0,0-.283-1.133,1.56,1.56,0,0,0-1.133-.283,3.484,3.484,0,0,0-.991.071v-1.062a5.274,5.274,0,0,1,1.274-.142,4.927,4.927,0,0,1,1.133.142,1.687,1.687,0,0,1,.779.425,1.4,1.4,0,0,1,.425.779,4.284,4.284,0,0,1,.142,1.062v2.831a9.929,9.929,0,0,0,.425,2.9v.142Z" transform="translate(-40.519 -213.381)"/>
      <path id="Path_111" data-name="Path 111" class="cls-1" d="M153.617,224.311h-1.345v-5.451a1.576,1.576,0,0,0-.5-1.345,3.923,3.923,0,0,0-2.194-.354,18.658,18.658,0,0,0-1.982.142v-1.133a4.352,4.352,0,0,1,.991-.071h1.274a4.732,4.732,0,0,1,2.9.637,2.453,2.453,0,0,1,.779,1.982v5.592Z" transform="translate(-43.119 -213.41)"/>
      <path id="Path_112" data-name="Path 112" class="cls-1" d="M172.724,224.282h-1.345v-5.663c0-.991-.5-1.487-1.557-1.487h-2.407V222.3a2.031,2.031,0,0,1-.637,1.628,2.246,2.246,0,0,1-1.416.425,2.84,2.84,0,0,1-1.062-.212v-.991a2.515,2.515,0,0,0,.708.142c.708,0,1.062-.283,1.062-.92v-5.238H164.8V216h4.814a3.987,3.987,0,0,1,2.407.566,2.362,2.362,0,0,1,.708,1.911v5.8Z" transform="translate(-47.997 -213.381)"/>
      <path id="Path_113" data-name="Path 113" class="cls-1" d="M186.5,216.042l-.354,5.238a3.323,3.323,0,0,1-.849,2.407,4.278,4.278,0,0,1-2.69.637,16.2,16.2,0,0,1-3.115-.212l-.5-8.141h1.345l.354,7.22a4.355,4.355,0,0,0,.92.071h.779a3.765,3.765,0,0,0,1.911-.283q.531-.319.637-1.7l.283-4.247h-2.69V215.9H186.5Z" transform="translate(-52.291 -213.352)"/>
      <path id="Path_114" data-name="Path 114" class="cls-1" d="M194.045,220.418H192.7V216.1h1.345Z" transform="translate(-56.294 -213.41)"/>
      <path id="Path_115" data-name="Path 115" class="cls-1" d="M206.661,216.071l-.425,4.814a3.881,3.881,0,0,1-1.2,2.761,5.493,5.493,0,0,1-3.256.779,22.146,22.146,0,0,1-3.61-.212l-.566-8.14h1.345l.283,4.247h.708a3.108,3.108,0,0,0,1.062-.142,1.657,1.657,0,0,0,.425-1.062l.142-3.044h1.345l-.212,2.973a2.422,2.422,0,0,1-.708,1.77,2.63,2.63,0,0,1-1.628.425,4.687,4.687,0,0,1-1.062-.071l.142,2.053a8.59,8.59,0,0,0,1.274.071h1.062a4.707,4.707,0,0,0,2.336-.425,2.18,2.18,0,0,0,.849-1.84l.425-5.026h1.274Z" transform="translate(-57.725 -213.381)"/>
      <path id="Path_116" data-name="Path 116" class="cls-1" d="M220.662,220.118a4.078,4.078,0,0,1-1.487,3.539,4.977,4.977,0,0,1-2.761.637,8.18,8.18,0,0,1-2.69-.354v-1.062a8.5,8.5,0,0,0,2.69.354,2.9,2.9,0,0,0,2.265-.708,3.324,3.324,0,0,0,.708-2.265v-.283a3.631,3.631,0,0,0-.637-2.407,2.42,2.42,0,0,0-1.84-.637h-.142c-1.416,0-2.124.637-2.124,1.84v.071a1.556,1.556,0,0,0,.425,1.2,1.305,1.305,0,0,0,.92.283v.92h-.425a2.086,2.086,0,0,1-1.557-.566,2.623,2.623,0,0,1-.708-1.982,2.723,2.723,0,0,1,.849-2.053,3.954,3.954,0,0,1,2.69-.849c2.619,0,3.964,1.345,3.964,4.106v.212Z" transform="translate(-62.312 -213.322)"/>
    </g>
    <rect id="Rectangle_38" data-name="Rectangle 38" class="cls-1" width="158.35" height="1.416" transform="translate(0 174.63)"/>
  </g>
</svg>
